<?xml version="1.0" encoding="UTF-8" standalone="no"?>
<!-- Created with Inkscape (http://www.inkscape.org/) -->
<svg
   xmlns:dc="http://purl.org/dc/elements/1.1/"
   xmlns:cc="http://creativecommons.org/ns#"
   xmlns:rdf="http://www.w3.org/1999/02/22-rdf-syntax-ns#"
   xmlns:svg="http://www.w3.org/2000/svg"
   xmlns="http://www.w3.org/2000/svg"
   xmlns:xlink="http://www.w3.org/1999/xlink"
   xmlns:sodipodi="http://sodipodi.sourceforge.net/DTD/sodipodi-0.dtd"
   xmlns:inkscape="http://www.inkscape.org/namespaces/inkscape"
   width="512"
   height="512"
   id="svg2383"
   sodipodi:version="0.32"
   inkscape:version="0.46"
   version="1.0"
   sodipodi:docname="icono-rfi-512x512.svg"
   inkscape:output_extension="org.inkscape.output.svg.inkscape"
   inkscape:export-filename="/Users/daniel/programacion/Mac/radio3/Images/icono-rfi-57x57.png"
   inkscape:export-xdpi="10.019531"
   inkscape:export-ydpi="10.019531"
   style="display:inline">
  <defs
     id="defs2385">
    <linearGradient
       id="linearGradient3737">
      <stop
         style="stop-color:#ffffff;stop-opacity:0.49803922;"
         offset="0"
         id="stop3739" />
      <stop
         style="stop-color:#ffffff;stop-opacity:0.2;"
         offset="1"
         id="stop3741" />
    </linearGradient>
    <linearGradient
       id="linearGradient3720">
      <stop
         id="stop3722"
         offset="0"
         style="stop-color:#26267b;stop-opacity:1;" />
      <stop
         id="stop3724"
         offset="1"
         style="stop-color:#1766c0;stop-opacity:1;" />
    </linearGradient>
    <linearGradient
       id="linearGradient3386">
      <stop
         style="stop-color:#000000;stop-opacity:1;"
         offset="0"
         id="stop3388" />
      <stop
         style="stop-color:#ffffff;stop-opacity:1;"
         offset="1"
         id="stop3390" />
    </linearGradient>
    <linearGradient
       id="linearGradient2397">
      <stop
         style="stop-color:#3535a9;stop-opacity:1;"
         offset="0"
         id="stop2399" />
      <stop
         style="stop-color:#2e9ce5;stop-opacity:1;"
         offset="1"
         id="stop2401" />
    </linearGradient>
    <inkscape:perspective
       sodipodi:type="inkscape:persp3d"
       inkscape:vp_x="0 : 32 : 1"
       inkscape:vp_y="0 : 1000 : 0"
       inkscape:vp_z="64 : 32 : 1"
       inkscape:persp3d-origin="32 : 21.333333 : 1"
       id="perspective2391" />
    <linearGradient
       inkscape:collect="always"
       xlink:href="#linearGradient2397"
       id="linearGradient2403"
       x1="238"
       y1="-2"
       x2="238"
       y2="511.00876"
       gradientUnits="userSpaceOnUse" />
    <inkscape:perspective
       id="perspective2470"
       inkscape:persp3d-origin="372.04724 : 350.78739 : 1"
       inkscape:vp_z="744.09448 : 526.18109 : 1"
       inkscape:vp_y="0 : 1000 : 0"
       inkscape:vp_x="0 : 526.18109 : 1"
       sodipodi:type="inkscape:persp3d" />
    <inkscape:perspective
       id="perspective3347"
       inkscape:persp3d-origin="372.04724 : 350.78739 : 1"
       inkscape:vp_z="744.09448 : 526.18109 : 1"
       inkscape:vp_y="0 : 1000 : 0"
       inkscape:vp_x="0 : 526.18109 : 1"
       sodipodi:type="inkscape:persp3d" />
    <linearGradient
       inkscape:collect="always"
       xlink:href="#linearGradient3386"
       id="linearGradient3392"
       x1="359"
       y1="129"
       x2="450.80002"
       y2="37.199989"
       gradientUnits="userSpaceOnUse" />
    <linearGradient
       inkscape:collect="always"
       xlink:href="#linearGradient3386"
       id="linearGradient3410"
       gradientUnits="userSpaceOnUse"
       x1="359"
       y1="129"
       x2="450.80002"
       y2="37.199989"
       gradientTransform="matrix(0.4997221,0.4997221,-0.4997221,0.4997221,236.12723,-193.10033)" />
    <mask
       maskUnits="userSpaceOnUse"
       id="mask3406">
      <path
         style="fill:url(#linearGradient3410);fill-opacity:1;fill-rule:nonzero;stroke:none;stroke-width:1;stroke-linecap:butt;stroke-linejoin:miter;marker:none;marker-start:none;marker-mid:none;marker-end:none;stroke-miterlimit:4;stroke-dasharray:none;stroke-dashoffset:0;stroke-opacity:1;visibility:visible;display:inline;overflow:visible;enable-background:accumulate"
         d="M 549.99956,11.270398 L 350.0014,11.254782 L 350.0014,36.27212 L 350.0014,86.275563 L 350.0014,111.26167 L 549.99956,111.27728 L 549.99956,86.259946 L 549.99956,36.256503 L 549.99956,11.270398 z"
         id="path3408" />
    </mask>
    <linearGradient
       inkscape:collect="always"
       xlink:href="#linearGradient3720"
       id="linearGradient3718"
       x1="256"
       y1="-6"
       x2="256"
       y2="516"
       gradientUnits="userSpaceOnUse" />
    <linearGradient
       inkscape:collect="always"
       xlink:href="#linearGradient3737"
       id="linearGradient3743"
       x1="272.22223"
       y1="2.2777765"
       x2="272.22223"
       y2="278.66666"
       gradientUnits="userSpaceOnUse" />
    <clipPath
       clipPathUnits="userSpaceOnUse"
       id="clipPath3214">
      <rect
         ry="89.655167"
         y="-1"
         x="16.222229"
         height="512"
         width="512"
         id="rect3216"
         style="opacity:1;fill:#000000;fill-opacity:1;stroke:none;stroke-width:15;stroke-linejoin:miter;stroke-miterlimit:4;stroke-dasharray:none;stroke-opacity:1;display:inline" />
    </clipPath>
    <clipPath
       clipPathUnits="userSpaceOnUse"
       id="clipPath3218">
      <rect
         ry="89.655167"
         y="-1"
         x="0"
         height="512"
         width="512"
         id="rect3220"
         style="opacity:1;fill:#000000;fill-opacity:1;stroke:none;stroke-width:15;stroke-linejoin:miter;stroke-miterlimit:4;stroke-dasharray:none;stroke-opacity:1;display:inline" />
    </clipPath>
    <inkscape:perspective
       id="perspective3258"
       inkscape:persp3d-origin="253.5 : 173.33333 : 1"
       inkscape:vp_z="507 : 260 : 1"
       inkscape:vp_y="0 : 1000 : 0"
       inkscape:vp_x="0 : 260 : 1"
       sodipodi:type="inkscape:persp3d" />
  </defs>
  <sodipodi:namedview
     id="base"
     pagecolor="#ffffff"
     bordercolor="#666666"
     borderopacity="1.0"
     inkscape:pageopacity="0.0"
     inkscape:pageshadow="2"
     inkscape:zoom="0.9"
     inkscape:cx="260.48584"
     inkscape:cy="255.63438"
     inkscape:current-layer="layer3"
     showgrid="true"
     inkscape:document-units="px"
     inkscape:grid-bbox="true"
     inkscape:window-width="1280"
     inkscape:window-height="706"
     inkscape:window-x="0"
     inkscape:window-y="22">
    <inkscape:grid
       type="xygrid"
       id="grid2393"
       visible="true"
       enabled="true"
       spacingx="5px"
       spacingy="5px" />
  </sodipodi:namedview>
  <metadata
     id="metadata2388">
    <rdf:RDF>
      <cc:Work
         rdf:about="">
        <dc:format>image/svg+xml</dc:format>
        <dc:type
           rdf:resource="http://purl.org/dc/dcmitype/StillImage" />
      </cc:Work>
    </rdf:RDF>
  </metadata>
  <g
     id="layer1"
     inkscape:label="Fondo"
     inkscape:groupmode="layer">
    <rect
       style="fill:url(#linearGradient2403);fill-opacity:1;stroke:none;stroke-width:5;stroke-miterlimit:4;stroke-dasharray:none;stroke-opacity:1"
       id="rect2395"
       width="512"
       height="512"
       x="0"
       y="-1"
       ry="0"
       clip-path="url(#clipPath3218)" />
  </g>
  <g
     inkscape:groupmode="layer"
     id="layer6"
     inkscape:label="Brillo"
     style="display:inline">
    <path
       sodipodi:type="arc"
       style="opacity:1;fill:url(#linearGradient3743);fill-opacity:1;fill-rule:nonzero;stroke:none;stroke-width:15;stroke-linecap:butt;stroke-linejoin:miter;marker:none;marker-start:none;marker-mid:none;marker-end:none;stroke-miterlimit:4;stroke-dasharray:none;stroke-dashoffset:0;stroke-opacity:1;visibility:visible;display:inline;overflow:visible;enable-background:accumulate"
       id="path3727"
       sodipodi:cx="272.22223"
       sodipodi:cy="32.833332"
       sodipodi:rx="400"
       sodipodi:ry="245.83333"
       d="M 672.22223,32.833332 A 400,245.83333 0 1 1 -127.77777,32.833332 A 400,245.83333 0 1 1 672.22223,32.833332 z"
       transform="translate(-16.222229,0)"
       clip-path="url(#clipPath3214)" />
  </g>
  <g
     inkscape:groupmode="layer"
     id="layer2"
     inkscape:label="Antena"
     style="display:inline">
    <g
       id="g3269"
       transform="translate(-72,0)"
       style="fill:#ffffff;fill-opacity:1">
      <path
         id="rect3262"
         d="M 290.03125,90.9375 L 263.0625,100.9375 C 275.87448,116.18895 283.6875,135.88989 283.6875,157.40625 C 283.6875,180.02688 275.1041,200.66759 261.09375,216.1875 L 288.46875,225.96875 C 302.63164,206.82066 311.03125,183.11681 311.03125,157.40625 C 311.03125,132.64586 303.2561,109.72058 290.03125,90.9375 z"
         style="opacity:1;fill:#ffffff;fill-opacity:1;fill-rule:nonzero;stroke:none;stroke-width:1;stroke-linecap:butt;stroke-linejoin:miter;marker:none;marker-start:none;marker-mid:none;marker-end:none;stroke-miterlimit:4;stroke-dasharray:none;stroke-dashoffset:0;stroke-opacity:1;visibility:visible;display:inline;overflow:visible;enable-background:accumulate" />
      <path
         id="path2476"
         d="M 98.315204,438.66727 L 123.71815,449.36325 L 203.93802,169.93076 L 177.19807,163.24578 L 98.315204,438.66727 z"
         style="fill:#ffffff;fill-opacity:1;fill-rule:evenodd;stroke:none;stroke-width:1px;stroke-linecap:butt;stroke-linejoin:miter;stroke-opacity:1" />
      <path
         id="path2478"
         d="M 181.20906,474.76623 L 179.87205,175.27877 L 213.29699,176.61574 L 211.95998,472.09221 L 195.91603,486.79918 L 181.20906,474.76623 z"
         style="fill:#ffffff;fill-opacity:1;fill-rule:evenodd;stroke:none;stroke-width:1px;stroke-linecap:butt;stroke-linejoin:miter;stroke-opacity:1" />
      <path
         sodipodi:nodetypes="ccccc"
         id="path2480"
         d="M 273.03279,424.38939 L 194.57902,202.01869 L 221.31898,188.64873 L 292.17985,401.23134 L 273.03279,424.38939 z"
         style="fill:#ffffff;fill-opacity:1;fill-rule:evenodd;stroke:none;stroke-width:1px;stroke-linecap:butt;stroke-linejoin:miter;stroke-opacity:1" />
      <path
         sodipodi:nodetypes="ccccc"
         id="path2482"
         d="M 155.80608,303.63051 L 187.89404,308.97852 L 191.42628,332.18624 L 149.1211,321.0115 L 155.80608,303.63051 z"
         style="fill:#ffffff;fill-opacity:1;fill-rule:evenodd;stroke:none;stroke-width:1px;stroke-linecap:butt;stroke-linejoin:miter;stroke-opacity:1" />
      <path
         id="path2484"
         d="M 205.275,310.31549 L 233.35196,287.58657 L 240.03695,303.63051 L 202.73471,330.37047 L 205.275,310.31549 z"
         style="fill:#ffffff;fill-opacity:1;fill-rule:evenodd;stroke:none;stroke-width:1px;stroke-linecap:butt;stroke-linejoin:miter;stroke-opacity:1" />
      <path
         sodipodi:nodetypes="ccccc"
         id="path2486"
         d="M 203.93802,363.31665 L 251.61597,328.91378 L 258.30095,345.10224 L 201.69313,382.56304 L 203.93802,363.31665 z"
         style="fill:#ffffff;fill-opacity:1;fill-rule:evenodd;stroke:none;stroke-width:1px;stroke-linecap:butt;stroke-linejoin:miter;stroke-opacity:1" />
      <path
         sodipodi:nodetypes="ccccc"
         id="path2488"
         d="M 205.275,414.60134 L 268.11388,371.8174 L 272.84942,389.62748 L 206.58721,434.73075 L 205.275,414.60134 z"
         style="fill:#ffffff;fill-opacity:1;fill-rule:evenodd;stroke:none;stroke-width:1px;stroke-linecap:butt;stroke-linejoin:miter;stroke-opacity:1" />
      <path
         sodipodi:nodetypes="ccccc"
         id="path2490"
         d="M 127.72915,391.87237 L 189.23105,415.93831 L 194.10026,442.78397 L 121.04417,407.91632 L 127.72915,391.87237 z"
         style="fill:#ffffff;fill-opacity:1;fill-rule:evenodd;stroke:none;stroke-width:1px;stroke-linecap:butt;stroke-linejoin:miter;stroke-opacity:1" />
      <path
         sodipodi:nodetypes="ccccc"
         id="path2492"
         d="M 141.09911,344.67635 L 137.08811,365.13242 L 189.23105,383.85038 L 189.66014,361.32197 L 141.09911,344.67635 z"
         style="fill:#ffffff;fill-opacity:1;fill-rule:evenodd;stroke:none;stroke-width:1px;stroke-linecap:butt;stroke-linejoin:miter;stroke-opacity:1" />
      <path
         transform="matrix(3.329124,0,0,3.329124,-429.57809,-463.62084)"
         d="M 204.77454,186.53581 A 16.578249,16.710875 0 1 1 171.61804,186.53581 A 16.578249,16.710875 0 1 1 204.77454,186.53581 z"
         sodipodi:ry="16.710875"
         sodipodi:rx="16.578249"
         sodipodi:cy="186.53581"
         sodipodi:cx="188.19629"
         id="path2494"
         style="fill:#ffffff;fill-opacity:1;stroke:none;stroke-width:0.25;stroke-miterlimit:4;stroke-dasharray:none;stroke-opacity:1"
         sodipodi:type="arc" />
      <path
         id="path3276"
         d="M 344.75,70.53125 L 320.40625,79.59375 C 334.45215,102.16275 342.5625,128.83048 342.5625,157.40625 C 342.5625,186.75128 333.99972,214.06996 319.25,237 L 343.8125,245.84375 C 359.20128,219.98177 368.03125,189.74516 368.03125,157.40625 C 368.03126,125.72371 359.56543,96.057641 344.75,70.53125 z"
         style="fill:#ffffff;fill-opacity:1;stroke:none;stroke-width:0.25;stroke-miterlimit:4;stroke-dasharray:none;stroke-opacity:1" />
    </g>
  </g>
  <g
     inkscape:groupmode="layer"
     id="layer3"
     inkscape:label="Mapa">
    <path
       d="M 316.48166,274.06954 L 313.87062,273.5358 L 312.06746,272.1798 L 312.51462,269.65533 L 314.67845,266.40959 L 318.37138,264.41887 L 322.88659,262.80321 L 329.73869,261.08658 L 333.60473,258.11492 L 337.12455,253.78726 L 339.56249,255.22982 L 339.56249,254.32101 L 337.57177,252.51782 L 337.84583,249.18552 L 337.84583,237.01039 L 341.81287,233.95218 L 347.04931,232.95682 L 351.55007,232.23554 L 354.43517,230.87954 L 355.60366,233.2309 L 355.96428,234.5869 L 355.344,235.56784 L 355.344,237.11137 L 355.87773,238.0923 L 357.14717,238.0923 L 358.04155,239.08766 L 358.31566,240.08302 L 359.03694,240.97741 L 360.11883,240.97741 L 361.20076,239.63583 L 363.45114,238.91456 L 364.61959,238.81358 L 364.80714,239.89549 L 365.34086,239.89549 L 365.44187,240.44366 L 366.2497,240.8043 L 366.33625,244.41068 L 366.69686,245.57915 L 367.96631,245.76668 L 368.58663,246.38697 L 370.3898,245.57915 L 371.02452,246.30042 L 372.10645,246.12732 L 373.54901,247.82953 L 373.46245,250.98871 L 374.09718,250.98871 L 374.6309,250.09433 L 379.67983,249.82025 L 382.56493,252.07063 L 382.92559,252.7919 L 381.56959,253.78726 L 381.56959,255.04228 L 381.12238,255.5039 L 382.83904,255.95109 L 383.1131,257.66773 L 381.30993,258.74964 L 381.39649,259.64402 L 385.08942,259.64402 L 386.35886,260.63938 L 387.44076,260.19219 L 389.41707,259.55747 L 390.49896,258.83619 L 390.49896,257.75428 L 390.49896,256.94645 L 391.30679,256.1242 L 392.21562,254.78262 L 393.57162,254.78262 L 393.93224,255.04228 L 393.93224,256.67237 L 392.9369,257.56675 L 393.57162,258.11492 L 393.21096,259.0093 L 392.9369,260.00466 L 394.37945,260.91347 L 394.37945,261.7213 L 394.01879,262.08194 L 394.1919,264.15921 L 397.077,264.51985 L 397.89928,265.05359 L 398.34645,266.22206 L 400.87093,266.49614 L 401.59221,267.04431 L 401.95282,268.8475 L 403.12131,269.02061 L 403.84259,269.74189 L 404.20321,271.45852 L 404.75137,271.45852 L 405.28514,270.91035 L 406.81425,270.8238 L 407.89614,269.82844 L 409.97341,269.82844 L 411.60352,271.63163 L 413.04607,271.63163 L 413.57979,272.1798 L 415.1089,272.1798 L 415.383,271.73261 L 416.46489,270.8238 L 417.82089,270.73725 L 419.07594,271.81916 L 419.98472,271.81916 L 420.25883,271.63163 L 421.15321,271.63163 L 423.04293,272.54044 L 423.95176,273.43482 L 424.03831,275.59864 L 425.30776,276.14681 L 425.30776,277.40183 L 425.84148,277.58937 L 426.75031,279.306 L 428.27941,279.11847 L 428.36597,278.03656 L 429.63541,277.50281 C 429.73609,277.56225 430.55435,278.03656 430.97696,278.03656 C 430.98624,278.03656 431.00872,278.03596 431.02026,278.03656 C 431.02183,278.03649 431.03337,278.03656 431.03467,278.03656 C 431.03988,278.03922 431.05862,278.04848 431.06352,278.05098 C 431.07455,278.0542 431.09361,278.06003 431.10682,278.06541 C 431.12459,278.07315 431.14942,278.08625 431.16452,278.09426 C 431.55431,278.31151 431.99797,279.0945 432.0589,279.20502 L 432.96768,279.83975 L 436.02589,279.75319 L 437.29534,278.58473 L 439.45917,278.39719 L 440.09389,279.39256 L 441.8971,280.47447 L 442.51738,281.36885 L 442.70493,281.31115 L 444.42154,280.83511 L 445.40248,280.83511 L 446.12376,281.64294 L 447.47975,280.83511 L 449.47048,281.83047 L 451.72086,282.09013 L 452.9759,283.08549 L 451.72086,283.35957 L 450.91303,285.5234 L 451.08613,287.0525 L 450.2783,287.86032 L 449.55703,287.86032 L 448.64824,289.04322 L 448.64824,290.12515 L 446.31131,291.82736 L 446.0372,294.89998 L 444.95531,298.4198 L 445.22937,301.03084 L 442.87804,305.63256 L 442.97899,308.51766 L 443.87337,309.77271 L 443.06555,310.94115 L 443.06555,312.74436 L 442.61838,313.82625 L 442.61838,316.09108 L 441.8971,317.07202 L 442.51738,318.51457 L 443.70027,319.87057 L 442.79148,321.03901 L 442.70493,323.02973 L 440.98827,324.38573 L 437.656,324.47228 L 437.02128,323.92411 L 437.20879,322.94318 L 434.944,323.30384 L 432.60707,326.00139 L 432.69362,326.36205 L 434.85745,325.91484 L 435.49217,326.54956 L 434.32368,327.99211 L 433.32835,328.43932 L 433.77551,329.52122 L 430.89041,332.85353 L 429.63541,333.48826 L 429.53441,335.20487 L 428.27941,336.37336 L 426.92342,337.00808 L 424.9471,337.98902 L 425.1202,342.31667 L 419.53755,347.55311 L 419.43655,348.18783 L 420.34538,348.54849 L 418.98938,350.16415 L 418.81628,352.05387 L 420.51849,352.9627 L 420.706,353.49642 L 419.35,355.21308 L 419.89817,355.5737 L 419.79721,356.48253 L 418.18155,356.65563 L 417.09962,357.29036 L 417.09962,359.00697 L 420.07127,359.00697 L 421.23976,357.92508 L 423.04293,356.74219 L 422.06199,355.93436 L 421.96104,355.12653 L 422.86982,353.13581 L 423.86521,353.04926 L 424.39893,353.85708 L 426.38965,352.24143 L 428.45252,351.88077 L 431.52513,351.88077 L 431.61169,353.04926 L 433.24179,354.76587 L 433.24179,356.02091 L 432.24641,357.1028 L 432.33296,357.82408 L 434.04962,358.64636 L 434.04962,359.98791 L 434.04962,360.81018 L 434.68434,360.44952 L 436.66062,362.51239 L 436.84817,364.50312 L 436.48751,365.3975 L 433.4149,366.66694 L 433.3716,368.2393 L 433.32835,369.72515 L 434.68434,371.26866 C 434.68434,371.26866 436.02589,371.1713 436.38656,371.08115 C 436.38785,371.08115 436.39934,371.0811 436.40096,371.08115 C 436.40234,371.0811 436.41407,371.08106 436.41541,371.08115 C 436.4167,371.0811 436.42819,371.0812 436.42981,371.08115 C 436.42976,371.08198 436.42981,371.09232 436.42981,371.09555 C 436.43115,371.09551 436.4426,371.09565 436.44426,371.09555 C 436.44661,371.09768 436.45635,371.10746 436.45866,371.11 C 436.46457,371.11757 436.48022,371.14084 436.48751,371.15326 C 436.71952,371.64963 436.57406,374.41342 436.57406,374.41342 L 439.012,375.85597 L 439.37261,377.12542 L 440.5411,377.57263 L 439.27166,379.73646 L 439.73327,380.45774 L 439.45917,381.98684 L 437.10783,382.89563 L 436.66062,383.42939 L 435.49217,384.06412 L 435.40562,385.14601 L 434.41024,385.14601 L 433.4149,384.51128 L 430.7173,385.59322 L 430.74616,385.65092 L 431.33762,386.94922 L 431.79924,387.858 L 433.14079,388.30522 L 433.50145,391.00277 L 435.85279,392.18566 L 437.10783,391.99815 L 438.10317,392.35876 L 438.37728,394.96981 L 439.63227,395.60453 L 439.63227,396.41236 L 438.65134,396.3258 L 437.56945,397.49425 L 437.82911,398.76369 L 436.21345,400.48035 L 435.85279,401.28818 L 436.3,402.45663 L 437.20879,402.73073 L 437.93006,403.36546 L 436.66062,403.53856 L 436.66062,405.34173 L 438.55038,406.51022 L 438.55038,408.14028 L 439.90638,408.14028 L 442.25772,408.775 L 444.59465,410.66477 L 445.95065,410.66477 L 450.19175,409.13566 L 451.53335,409.03466 L 451.89396,410.21755 L 452.35558,411.02538 L 452.61524,412.38138 L 452.08152,414.3577 L 450.0908,414.99242 L 450.36486,416.34842 L 449.00886,417.51686 L 449.91769,419.59414 L 448.28758,420.57507 L 448.20103,421.57046 L 446.58537,421.57046 L 444.78221,423.20052 L 442.70493,423.37362 L 442.61838,426.17217 L 441.70955,425.98467 L 441.07482,426.8069 L 439.27166,426.44628 L 439.18511,428.50911 L 437.656,430.22577 L 435.04496,430.58638 L 434.85745,432.02893 L 434.13617,433.02432 L 432.69362,433.9187 L 434.58334,433.83215 L 434.58334,436.18348 L 433.14079,436.8038 L 431.88579,436.44314 L 431.33762,437.26542 L 429.44786,437.26542 L 428.72658,437.88569 L 428.55348,439.06859 L 427.91875,439.5158 L 427.47159,438.96763 L 426.92342,438.79452 L 425.56742,438.34731 L 424.39893,439.15514 L 424.58648,440.32363 L 425.1202,440.8718 L 422.95638,440.7708 L 423.86521,440.32363 L 423.95176,439.60235 L 421.15321,439.32824 L 419.53755,440.32363 L 418.62872,440.95835 L 417.63338,440.7708 L 417.18617,438.96763 L 415.57051,438.24635 L 415.1089,437.62603 L 412.94507,436.90476 L 408.53086,436.90476 L 409.07903,436.27004 L 409.43969,435.36125 L 407.44897,435.2747 L 408.89152,434.01965 L 408.61741,433.19742 L 407.27586,433.74559 L 402.12593,433.65904 L 401.3181,431.94238 L 399.60149,431.2211 L 398.51955,432.11549 L 400.14966,433.65904 L 397.077,434.19276 L 393.21096,433.38493 L 394.10534,431.85583 L 395.46134,431.85583 L 394.74007,431.13455 L 390.94618,430.86049 L 388.08993,430.73064 L 386.97914,430.67293 L 384.91631,430.77394 L 384.91631,428.97072 L 383.53146,428.86977 L 382.29087,428.78322 L 379.23266,430.94704 L 374.35684,434.82748 L 373.54901,435.82287 L 371.02452,435.90942 L 370.6639,436.71725 L 367.41814,437.71259 L 367.36044,438.20305 L 367.24503,439.15514 L 366.33625,440.04952 L 364.98025,441.13146 L 363.45114,439.68891 L 362.72987,440.8718 L 363.63865,442.21335 L 364.72059,442.12679 L 364.61959,445.09845 L 364.69174,447.68064 L 364.8937,455.55697 L 366.16314,456.10514 L 366.88442,457.10048 L 366.88442,458.54303 L 365.44187,458.44208 L 364.25897,457.18703 L 362.36921,457.18703 L 361.01321,457.63425 L 360.11883,458.80269 L 357.40683,459.43741 L 357.32028,460.70686 L 356.78656,460.96652 L 356.15183,460.51935 L 355.51711,460.51935 L 354.79584,461.42814 L 352.27135,459.26431 L 349.29969,458.26897 L 347.40997,458.62959 L 345.86642,460.51935 L 344.78453,460.70686 L 343.34198,459.43741 L 343.25542,457.82176 L 340.55783,457.10048 L 339.20183,455.83104 L 339.04317,454.87895 L 338.75466,453.22004 L 334.78762,452.67187 L 333.43162,453.22004 L 331.90252,450.7821 L 328.02208,450.96966 L 326.49297,448.97894 L 325.31008,448.97894 L 322.52593,448.44517 L 322.03546,448.17111 L 320.1746,447.08917 L 318.91955,446.90166 L 318.73204,451.33027 L 315.06796,451.08506 L 313.32245,450.96966 L 312.51462,450.609 L 311.8799,451.69094 L 310.16329,451.22932 L 308.90825,449.78677 L 305.93659,451.05621 L 304.7537,451.05621 L 303.31114,449.88772 L 303.13804,448.80583 L 301.33487,447.44983 L 299.80577,446.541 L 299.57496,446.67086 L 298.00255,447.53639 L 297.18032,447.98355 L 296.73311,447.53639 L 295.83873,447.7239 L 294.84339,448.25766 L 293.93456,447.17573 L 291.59763,445.37256 L 291.41012,443.48279 L 287.99125,443.48279 L 285.91397,442.21335 L 283.75014,441.85273 L 283.02887,440.8718 L 281.41321,440.8718 L 280.77849,439.96297 L 280.86504,438.79452 L 280.05721,439.68891 L 279.78315,441.0449 L 278.3406,440.59769 L 277.53277,439.68891 L 277.61932,438.88108 L 278.88877,438.24635 L 278.88877,436.54414 L 279.50904,435.99597 L 279.24938,434.91404 L 278.16749,434.63998 L 276.45083,433.9187 L 276.09022,434.74093 L 274.82077,434.63998 L 274.73422,433.47149 L 273.11856,433.38493 L 272.03663,432.38959 L 272.03663,431.39421 L 273.20512,431.2211 L 274.82077,430.58638 L 276.89805,428.06194 L 277.27311,427.39837 L 278.61466,425.09028 L 279.14843,422.92646 L 279.78315,419.8538 L 281.86043,411.91976 L 283.46888,403.30775 L 283.47608,401.20163 L 284.47142,399.84563 L 284.65898,398.48963 L 285.55336,398.12897 L 285.91397,398.67714 L 288.16435,398.57618 L 287.63063,397.85491 L 287.44308,397.32114 L 285.63991,395.69108 L 284.38487,397.32114 L 283.75014,399.39842 L 283.8367,397.85491 L 284.65898,391.9116 L 285.82742,384.25162 L 286.27463,376.67825 L 287.71718,374.51442 L 288.62597,374.60098 L 288.52501,376.4907 L 293.12673,380.64524 L 294.39618,385.59322 L 294.84339,387.75705 L 295.29056,387.03577 L 295.11745,384.42473 L 294.48273,381.81373 L 294.35292,381.23671 L 293.6749,378.1208 L 290.7898,375.2357 L 289.79446,375.04814 L 289.70791,374.15376 L 288.43846,373.43249 L 286.54869,371.88898 L 285.4668,371.98993 L 285.27925,369.99921 L 284.91863,368.02294 L 284.74553,366.30628 L 282.66825,364.77718 L 282.85576,361.61801 L 284.11081,363.14712 L 285.63991,363.33463 L 285.82742,365.49845 L 286.27463,365.85911 L 286.54869,366.47939 L 285.74087,367.56132 L 285.91397,368.2826 L 287.18342,368.2826 L 286.90936,367.83539 L 286.8228,366.58039 L 287.90469,366.66694 L 288.35191,364.67622 L 287.54408,363.50773 L 287.90469,362.97401 L 288.98663,363.14712 L 289.07318,362.15173 L 288.26535,361.79112 L 287.80374,360.53608 L 286.54869,360.26201 L 286.18808,359.45418 L 284.29831,359.54074 L 283.30298,358.73291 L 282.03353,357.92508 L 280.77849,357.92508 L 279.78315,356.48253 L 281.31226,355.93436 L 282.39415,356.65563 L 282.5817,357.56442 L 284.38487,357.73752 L 285.10614,358.54535 L 286.46214,358.37225 L 286.63525,357.46346 L 288.0778,356.29497 L 287.41423,355.6891 L 286.90936,355.21308 L 286.8228,356.48253 L 284.83208,355.48714 L 283.9377,354.13115 L 281.94698,354.13115 L 281.13915,352.32798 L 279.06188,352.32798 L 277.25866,350.52477 L 275.4555,349.63038 L 273.73884,344.4805 L 272.93101,344.4805 L 273.01756,343.67267 L 270.23346,340.97508 L 270.32001,338.81125 L 273.06086,335.27702 L 270.76718,333.04104 L 268.79091,333.4017 L 268.60335,332.0457 L 269.68529,332.0457 L 270.68063,331.05032 L 270.32001,330.24249 L 270.23346,329.33371 L 271.84912,328.52588 L 270.32001,328.52588 L 269.15152,329.79532 L 267.52146,329.79532 L 266.52608,328.52588 L 266.35297,329.24715 L 264.63636,328.88649 L 263.64098,328.35277 L 264.54981,327.08333 L 264.18914,326.36205 L 263.82853,326.00139 L 265.54514,324.47228 L 264.99697,324.09002 L 264.82387,323.20284 L 265.44419,322.66912 L 264.18914,322.39501 L 259.31332,322.84222 L 258.50549,321.58718 L 257.4236,321.22657 L 258.14488,320.31774 L 259.50088,320.95246 L 260.66932,321.31312 L 261.11653,320.59184 L 260.22215,319.50991 L 259.05366,319.23585 L 259.31332,319.87057 L 258.05832,320.05808 L 257.06294,318.70208 L 257.61111,319.95712 L 257.06294,320.86591 L 255.8945,319.87057 L 255.62039,319.23585 L 255.25977,320.31774 L 254.17784,320.05808 L 254.17784,321.67373 L 254.72601,322.39501 L 254.17784,323.02973 L 253.09595,322.2219 L 253.28345,321.03901 L 253.45656,319.87057 L 252.92284,318.87518 L 251.29273,317.25953 L 250.03774,316.71136 L 250.2974,315.73042 L 249.76363,316.53825 L 248.32108,316.17764 L 247.27524,314.51148 L 246.0707,314.46098 L 244.52719,314.18691 L 243.90687,313.29253 L 243.80591,313.82625 L 241.28142,313.65315 L 240.11298,311.76343 L 239.75232,310.21987 L 239.75232,311.76343 L 238.85794,311.93653 L 237.41539,311.12871 L 236.59315,311.21526 L 235.78533,310.8546 L 236.59315,311.93653 L 236.14594,312.74436 L 234.06867,312.84532 L 232.17895,312.4847 L 232.81367,311.21526 L 232.36646,308.87832 L 230.46229,306.7145 L 229.29384,306.80105 L 228.48601,306.07977 L 227.49063,306.16633 L 226.59625,305.63256 L 227.21657,304.81033 L 230.28918,304.63722 L 232.09239,304.36311 L 233.17428,304.36311 L 234.34277,304.44967 L 234.89094,303.46873 L 234.53028,302.02618 L 233.6215,301.83867 L 231.73173,300.75674 L 230.7364,302.28584 L 230.28918,302.6465 L 230.37573,300.22301 L 228.76008,299.67485 L 230.01512,298.23229 L 232.09239,299.22763 L 233.80901,299.67485 L 235.97283,299.7614 L 236.05939,299.22763 L 234.06867,299.14108 L 234.42933,297.87163 L 232.62611,298.67946 L 232.45301,297.78508 L 234.42933,295.89536 L 232.17895,297.51102 L 228.76008,297.95819 L 228.48601,297.59757 L 227.93785,298.14574 L 226.49529,297.95819 L 226.85591,295.98191 L 226.40874,295.17408 L 227.85129,293.99119 L 226.76936,293.18336 L 228.0388,291.65426 L 230.46229,291.56771 L 230.64984,290.48577 L 231.37112,290.12515 L 232.00584,290.57232 L 233.44839,290.48577 L 233.44839,289.85105 L 235.51122,289.57698 L 235.69877,290.57232 L 236.86722,290.29826 L 237.22788,289.40388 L 239.2186,289.21632 L 240.30049,289.66354 L 241.28142,288.5816 L 241.46898,290.65887 L 242.55087,290.48577 L 242.72398,291.2936 L 243.44525,291.2936 L 243.44525,289.49043 L 245.96974,289.40388 L 247.4844,290.28381 L 248.76829,288.5816 L 248.04702,287.60067 L 249.93673,286.33122 L 251.37929,287.41316 L 251.8409,286.77843 L 253.90377,286.51877 L 254.72601,285.88405 L 255.25977,287.13905 L 255.53383,286.24467 L 257.33705,286.24467 L 257.25049,287.24005 L 258.23143,287.3266 L 258.14488,288.76915 L 259.41432,289.04322 L 259.41432,290.57232 L 261.11653,291.82736 L 260.94343,293.45742 L 262.83315,294.35181 L 262.83315,295.98191 L 263.55442,295.98191 L 263.55442,295.07308 L 266.88674,293.26992 L 267.43491,292.18798 L 269.05057,292.46209 L 270.13246,291.65426 L 270.13246,293.45742 L 270.76718,292.73615 L 271.67601,293.01026 L 271.76256,294.26525 L 272.84445,294.1787 L 273.01756,293.18336 L 274.73422,293.37087 L 275.31124,292.72175 L 276.17677,291.74081 L 278.3406,291.82736 L 277.25866,293.26992 L 278.88877,294.26525 L 283.31738,294.26525 L 285.01959,294.26525 L 286.00053,293.81809 L 285.82742,292.90925 L 283.8367,292.46209 L 282.5817,289.21632 L 283.75014,286.87939 L 283.75014,284.35493 L 282.66825,282.19111 L 282.66825,278.94536 L 282.22104,278.31064 L 281.77387,276.23337 L 279.6966,273.89643 L 279.06188,272.45388 L 279.24938,270.73725 L 278.97532,270.54971 L 278.52811,270.10252 L 279.24938,269.20814 L 279.24938,267.21742 L 277.34522,265.68832 L 277.70588,264.77951 L 281.0526,265.77487 L 283.38953,267.30397 L 285.4668,265.86142 L 289.34725,266.04895 L 290.24163,268.48687 L 289.24629,268.48687 L 288.52501,270.29005 L 290.87635,273.07418 L 290.9629,275.23801 L 291.81403,275.02162 L 294.48273,274.34362 L 296.19939,275.23801 L 303.58525,276.31992 L 306.65786,278.03656 L 310.5239,276.50745 L 313.95718,274.51673 L 316.0633,274.14167"
       id="France-outline"
       style="fill:#ffffff;fill-opacity:1" />
  </g>
  <g
     inkscape:groupmode="layer"
     id="layer5"
     inkscape:label="Borde"
     style="display:inline">
    <rect
       style="opacity:1;fill:none;fill-opacity:1;stroke:url(#linearGradient3718);stroke-width:15;stroke-linejoin:miter;stroke-miterlimit:4;stroke-dasharray:none;stroke-opacity:1;display:inline"
       id="rect3187"
       width="512"
       height="512"
       x="0"
       y="-1"
       ry="89.655167"
       clip-path="none"
       mask="none" />
  </g>
</svg>
